<svg xmlns="http://www.w3.org/2000/svg" viewBox="0 0 600 600"><defs><style>.a{fill:#888;}</style></defs><path class="a" d="M560,298.55a2.11,2.11,0,0,0,0-.26c0-.22,0-.44,0-.65A259.92,259.92,0,0,0,303.07,40l-.56,0h-.13l-.25,0L300,40A260,260,0,0,0,40,300c0,.91,0,1.81,0,2.72,0,.13,0,.26,0,.39,0,.33,0,.66,0,1A259.93,259.93,0,0,0,296.73,560c.25,0,.5,0,.76,0h.07l.4,0,2,0A260,260,0,0,0,560,300C560,299.52,560,299,560,298.55ZM476.62,462.48l-91.24-91.25a237.93,237.93,0,0,1,154.46-62.91A238.06,238.06,0,0,1,476.62,462.48ZM60.48,313.09a258.77,258.77,0,0,0,88.64-18.41,257.89,257.89,0,0,0,80.39-51L285.86,300,123.38,462.48A239.06,239.06,0,0,1,60.48,313.09Zm62.9-175.57,92,92A237.78,237.78,0,0,1,60.22,293.09,239.19,239.19,0,0,1,123.38,137.52ZM539.72,288.31a257.87,257.87,0,0,0-168.5,68.77L314.14,300,476.62,137.52A238.08,238.08,0,0,1,539.72,288.31ZM300,285.86l-56.37-56.38a257.83,257.83,0,0,0,50.56-80.23,258.61,258.61,0,0,0,18.22-88.81,239.13,239.13,0,0,1,150.07,62.94Zm-70.53-70.53-91.95-92A239.12,239.12,0,0,1,292.41,60.25,237.83,237.83,0,0,1,229.47,215.33ZM300,314.14l57.06,57.06a257.69,257.69,0,0,0-69.42,168.48,238,238,0,0,1-150.12-63.06Zm71.21,71.21,91.27,91.27a238.13,238.13,0,0,1-154.84,63.25A237.9,237.9,0,0,1,371.21,385.35Z"/></svg>