<svg xmlns="http://www.w3.org/2000/svg" viewBox="0 0 600 600"><defs><style>.a{fill:none;stroke:#fff;stroke-linecap:round;stroke-linejoin:round;stroke-width:35px;}</style></defs><path class="a" d="M149.68,98s21.19,77.48,63.4,96.24S325,177.34,325,177.34s20.1,200.23,182.67,203.92a30.54,30.54,0,0,1,19.8,8c24.55,22.07,79.17,84-43.54,111.2a49,49,0,0,1-14.33,1l-120.66.5a26.87,26.87,0,0,1-14.32-5.54L39,283.93Z"/><path class="a" d="M73.07,237.88,354.37,442a26.86,26.86,0,0,0,13.93,5.42l184.43,1.71"/><line class="a" x1="344.85" y1="218.27" x2="280.01" y2="242.9"/><line class="a" x1="353.5" y1="261.65" x2="318.91" y2="274.55"/><line class="a" x1="379.43" y1="290.97" x2="342.69" y2="307.38"/></svg>