<svg xmlns="http://www.w3.org/2000/svg" viewBox="0 0 600 600"><defs><style>.a{fill:#888;}</style></defs><path class="a" d="M534.81,381.08a41.82,41.82,0,0,0-26.9-10.81c-52.53-1.19-94.62-24.14-125.53-68.29l1.65-.73a11.26,11.26,0,0,0-9.19-20.56l-4.49,2c-1.67-3-3.3-6-4.89-9.17-.92-1.84-1.82-3.67-2.69-5.51a11.25,11.25,0,0,0-7.58-17.49c-2.89-7.34-5.37-14.5-7.49-21.3l1.15-.43a11.25,11.25,0,0,0-7.13-21.33,270.39,270.39,0,0,1-5.79-31.23A11,11,0,0,0,320,167.56c-18.12,9.24-71.86,30.24-102.46,16.64s-51.74-68.94-57.28-89.11a11,11,0,0,0-20-2.71L29.56,278.31a11,11,0,0,0,3,14.54L328.09,505.3A37.87,37.87,0,0,0,348.14,513c.27,0,.53,0,.8,0H349l120.26-.5a60.43,60.43,0,0,0,17.06-1.3c50-11.09,77.5-28.86,84.2-54.35C578.59,426.12,551.61,396.19,534.81,381.08ZM147,124c10.21,26,30.46,66.38,61.65,80.25,10.26,4.56,21.74,6.34,33.46,6.34,28.09,0,57.48-10.27,74.19-17.25,1.06,5.95,2.57,13.41,4.68,21.94L276,232.37a11.26,11.26,0,0,0,8,21l43.09-16.36c2,6.36,4.33,13,7,19.83L315,264a11.26,11.26,0,1,0,7.87,21.1L343,277.59q1.25,2.63,2.56,5.25c1.51,3,3.08,6,4.67,8.85L338.1,297.1a11.26,11.26,0,0,0,4.6,21.54,11.14,11.14,0,0,0,4.58-1L362,311.07c35.09,51.87,84.8,79.8,145.39,81.17a19.55,19.55,0,0,1,12.7,5.18c10.51,9.45,34.34,33.57,29.17,53.71l-180.42-1.67a16,16,0,0,1-7.88-3.21l-.17-.12L79.52,242a11.45,11.45,0,0,0-2.06-1.17Zm334.58,365.7a38.31,38.31,0,0,1-11.14.82c-.28,0-.56,0-.85,0L349.38,491a15.94,15.94,0,0,1-8.09-3.28l-.25-.19L53.59,280.89l12.72-21.36.31.24L347.84,463.86a37.92,37.92,0,0,0,19.55,7.53q.41,0,.81,0l161.21,1.5C518,479.55,501.92,485.22,481.55,489.73Z"/></svg>