<svg xmlns="http://www.w3.org/2000/svg" viewBox="0 0 600 600"><defs><style>.a{fill:#888;}</style></defs><path class="a" d="M513,62.83a10,10,0,0,0-11.69,8L451.19,336l-339.3-31.5a30.24,30.24,0,0,0-33.73,30V506.42a30.27,30.27,0,0,0,30.24,30.24H426.16a10,10,0,0,0,9.85-8.25l13.36-75.18L521,74.52A10,10,0,0,0,513,62.83ZM98.16,506.42V473.66h90a10,10,0,1,0,0-20h-90v-60h90a10,10,0,1,0,0-20h-90V334.51a10.23,10.23,0,0,1,10.19-10.24,9.17,9.17,0,0,1,1.28.08l.28,0,336.5,31.23-16.7,93.94L417,516.66H108.4A10.25,10.25,0,0,1,98.16,506.42Z"/></svg>