<svg xmlns="http://www.w3.org/2000/svg" viewBox="0 0 600 600"><defs><style>.a{fill:none;stroke:#fff;stroke-miterlimit:10;stroke-width:35px;}</style></defs><circle class="a" cx="300" cy="288" r="250"/><polygon class="a" points="300 192.89 205 261.91 241.29 373.59 358.71 373.59 395 261.91 300 192.89"/><polyline class="a" points="342.41 535.73 385.44 422.98 356.09 374 300.02 374 243.87 374 214.56 422.92 257.63 535.73"/><polyline class="a" points="385 423 514 415 547 317 487.27 273.77 441.45 241.33 391.35 261.35 359 372"/><polyline class="a" points="212 423 89 420 54.61 319.74 110.8 272.54 156.06 239.3 206.49 258.44 241 368"/><polyline class="a" points="417 66 307.36 140.94 305.39 194.92 351.33 227.09 397.32 259.29 447.31 239.01 471.93 104"/><polyline class="a" points="193 61 297.96 140.94 299.93 194.92 254 227.09 208 259.29 158.01 239.01 133.4 100"/></svg>