<svg xmlns="http://www.w3.org/2000/svg" viewBox="0 0 600 600"><defs><style>.a{fill:none;stroke:#fff;stroke-linecap:round;stroke-linejoin:round;stroke-width:35px;}</style></defs><path class="a" d="M326.92,51.44A251.86,251.86,0,0,0,300,50a250,250,0,1,0,0,500c120.93,0,221.81-85.87,245-200a250.75,250.75,0,0,0,5-50C550,171,452.33,64.86,326.92,51.44ZM326,449.29a248.56,248.56,0,0,1-115.84-38.75c-8.78,24.21-15.25,53.51-17.41,88.83"/><path class="a" d="M191.94,525.5q0-13.59.78-26.13c2.16-35.32,8.63-64.62,17.41-88.83,30.78-85,89.87-107.32,89.87-107.32,0-143.77-103.18-231-103.18-231"/><path class="a" d="M300,303.22S425,347,550,300"/><path class="a" d="M100,150A250.26,250.26,0,0,1,326.92,51.44C452.33,64.86,550,171,550,300c0,17.14-4.71,46.83-8,63-45.61,60.7-115.23,87-197,87q-9.6,0-19-.71h0a248.56,248.56,0,0,1-115.84-38.75"/><path class="a" d="M121.91,475.45A249.72,249.72,0,0,1,108,393c0-105,64.69-194.83,156.38-231.87"/><path class="a" d="M289.55,50.22A250.45,250.45,0,0,1,425.64,321.75"/></svg>