<svg xmlns="http://www.w3.org/2000/svg" viewBox="0 0 600 600"><defs><style>.a{fill:#888;}</style></defs><path class="a" d="M560,302.44c0-.84,0-1.65,0-2.44A260,260,0,0,0,333.91,42.2c-2-.26-3.94-.49-5.93-.7A261.15,261.15,0,0,0,300,40c-3.52,0-7,.09-10.53.23l-.64,0A258.08,258.08,0,0,0,154.77,84.34,261.66,261.66,0,0,0,92,144h0A260.26,260.26,0,0,0,67.75,417a261.72,261.72,0,0,0,46.54,64.92A10.67,10.67,0,0,0,115.4,483a259,259,0,0,0,72.21,51.47A257.39,257.39,0,0,0,300,560,260.1,260.1,0,0,0,551.49,366.15a11,11,0,0,0,.31-1.16c0-.06,0-.13,0-.19q1.63-6.35,2.95-12.77A261.42,261.42,0,0,0,560,302.44ZM326.73,439.32h-.06l-1-.08c-.91-.07-1.82-.14-2.73-.23l-1.14-.11-2.55-.25-1.17-.14c-.84-.09-1.67-.18-2.51-.29l-1.35-.17-2.31-.31-1.58-.23-2.08-.3-1.75-.29-1.91-.31-1.78-.32L301,436l-1.84-.36-1.79-.34-1.93-.41c-.56-.12-1.13-.23-1.69-.36l-2.1-.47-1.5-.34-2.17-.53-1.43-.35-2.27-.59-1.3-.33-2.36-.65-1.21-.34-2.42-.7-1.12-.33-2.41-.75-1.13-.35c-.8-.25-1.59-.51-2.39-.78l-1.12-.36-2.29-.79-1.21-.41-2.29-.83-1.19-.43-2.32-.87-1.14-.43-2.41-1-1-.4-2.28-.94-1.14-.48c-.71-.29-1.41-.6-2.12-.91l-1.28-.55-2.25-1-1.11-.5L242.4,417l-1-.48c-.83-.39-1.66-.8-2.48-1.21l-.84-.41-2.1-1.06-1.21-.61-2-1c-.43-.23-.87-.45-1.3-.69l-2-1.07-1.28-.7-1.95-1.11L225,407.9c-.64-.36-1.27-.74-1.91-1.12l-.69-.4c14.83-37,35.13-60.06,50-73.16a129.24,129.24,0,0,1,28.15-19.3c9.9,3.11,37.95,11.09,76.5,15.26a436.17,436.17,0,0,0,46.82,2.53h.87c.3,0,.61,0,.91,0s.65,0,1-.05c33.69-.22,72.81-4.49,112.59-17.35-1.39,15-4.34,33.06-6.57,44.43C491.23,412.67,428.11,440,345,440,338.92,440,332.78,439.77,326.73,439.32Zm-53.12-282a9.46,9.46,0,0,0-.75-1.45c-5.34-10.2-10.81-19.39-16.06-27.48a342.22,342.22,0,0,0-42-52.8q7.66-2.92,15.48-5.31,6.31-1.92,12.73-3.48l.83-.19A237.17,237.17,0,0,1,274,61.38c.79-.09,1.57-.15,2.36-.23,3.65-.35,7.32-.64,11-.83,81.86,41,132.6,123,132.6,214.68a242.49,242.49,0,0,1-2.8,36.65c-13.71-.22-26.33-1.11-37.44-2.3a406.8,406.8,0,0,1-69.85-13.5C308.55,239.75,291.89,192.59,273.61,157.3ZM539.89,293c-35.66,12.47-71.12,17.4-102.43,18.46A263.09,263.09,0,0,0,440,275,259.94,259.94,0,0,0,328.77,61.73,239.35,239.35,0,0,1,539.89,293ZM60,300a238,238,0,0,1,48-144,241.1,241.1,0,0,1,87-71.84,315.76,315.76,0,0,1,45.38,55.7c3.25,5,6.59,10.54,9.93,16.46A260.34,260.34,0,0,0,101.38,435,238.48,238.48,0,0,1,60,300Zm70.65,170.09A240.33,240.33,0,0,1,259.63,174c15.65,32.25,29.2,74,30.3,122.83-17,8.65-62.87,37.74-89.12,110.07l0,.07-.05.14q-2.78,7.67-5.16,15.71c-6.86,23.21-11.16,48.67-12.83,75.92h0c-.21,3.42-.37,6.89-.49,10.39a240.64,240.64,0,0,1-28.08-18.53A246.45,246.45,0,0,1,130.65,470.09ZM300,540a237.74,237.74,0,0,1-98-20.86c.09-6.49.33-12.91.71-19.16.11-1.84.24-3.67.38-5.5,0-.59.1-1.18.14-1.77.1-1.24.21-2.47.32-3.69.06-.69.12-1.37.19-2,.11-1.14.22-2.27.34-3.39.08-.7.15-1.4.23-2.1.12-1.12.26-2.25.39-3.37l.24-2c.16-1.25.33-2.49.5-3.73l.21-1.53c.25-1.73.51-3.46.78-5.18.06-.32.11-.64.17-1,.22-1.39.45-2.78.7-4.16.1-.59.21-1.18.32-1.76.2-1.12.41-2.23.62-3.34.12-.64.25-1.28.38-1.91.21-1.06.42-2.12.65-3.18.13-.62.26-1.25.4-1.88.23-1.09.48-2.17.73-3.26.13-.56.25-1.12.38-1.68q.47-2,1-3.93c.08-.31.15-.62.23-.93.41-1.62.83-3.22,1.27-4.82.1-.37.21-.74.31-1.11.34-1.21.68-2.42,1-3.62l.48-1.6c.19-.65.4-1.3.6-2l.39.22c2,1.11,3.9,2.2,5.87,3.26l.05,0c2,1.06,3.94,2.08,5.93,3.08l.72.37q2.85,1.43,5.72,2.77l1,.45c1.9.88,3.8,1.74,5.72,2.58l1,.42c1.95.84,3.9,1.66,5.87,2.45l.72.28c2,.82,4.12,1.62,6.19,2.39l.08,0c2.08.77,4.17,1.5,6.27,2.21l.79.28c2,.67,4,1.31,6,1.94l1.05.32q3,.91,6,1.76l1,.29q3.06.84,6.14,1.61l.78.19q3.23.8,6.48,1.51h0q3.27.71,6.54,1.33l.8.16c2.08.39,4.17.75,6.26,1.1l1.07.17q3.09.49,6.2.91l1.08.14q3.15.41,6.32.74l.8.08q3.33.34,6.68.6h.13c6.51.48,13.12.73,19.65.73,43.33,0,82.35-7.25,116-21.53a218.16,218.16,0,0,0,54.82-33.36C476.31,485.83,393.12,540,300,540Z"/></svg>